<svg width="20" height="18" viewBox="0 0 20 18" fill="none" xmlns="http://www.w3.org/2000/svg">
<path d="M6.25002 4.83333H8.54169M6.25002 8.16667H8.54169M6.25002 11.5H8.54169M11.4584 4.83333H13.75M11.4584 8.16667H13.75M11.4584 11.5H13.75M16.6667 16.5V4.16667C16.6667 3.23325 16.6667 2.76654 16.485 2.41002C16.3252 2.09641 16.0703 1.84144 15.7567 1.68166C15.4002 1.5 14.9334 1.5 14 1.5H6.00002C5.0666 1.5 4.59989 1.5 4.24337 1.68166C3.92977 1.84144 3.6748 2.09641 3.51501 2.41002C3.33335 2.76654 3.33335 3.23325 3.33335 4.16667V16.5M18.3334 16.5H1.66669" stroke="#0E0F0C" stroke-width="1.5" stroke-linecap="round" stroke-linejoin="round"/>
</svg>
