<svg width="20" height="20" viewBox="0 0 20 20" fill="none" xmlns="http://www.w3.org/2000/svg">
<g clip-path="url(#clip0_535_513)">
<path d="M14.3334 11.6667C14.5642 11.6667 14.6796 11.6667 14.7731 11.718C14.8503 11.7603 14.9221 11.8397 14.9565 11.9207C14.9982 12.0189 14.9877 12.1233 14.9667 12.3323C14.858 13.4157 14.4852 14.4596 13.8765 15.3705C13.1439 16.4669 12.1028 17.3213 10.8846 17.8259C9.66641 18.3305 8.32596 18.4625 7.03275 18.2053C5.73955 17.9481 4.55166 17.3131 3.61931 16.3808C2.68696 15.4484 2.05202 14.2605 1.79479 12.9673C1.53755 11.6741 1.66958 10.3337 2.17416 9.1155C2.67874 7.89733 3.53323 6.85614 4.62956 6.1236C5.54049 5.51493 6.5844 5.14206 7.66778 5.03336C7.87674 5.0124 7.98123 5.00191 8.07942 5.04357C8.16043 5.07794 8.23982 5.14977 8.2821 5.22693C8.33336 5.32048 8.33336 5.4359 8.33336 5.66673V11.0001C8.33336 11.2334 8.33336 11.3501 8.37877 11.4392C8.41872 11.5176 8.48246 11.5814 8.56086 11.6213C8.64999 11.6667 8.76667 11.6667 9.00002 11.6667H14.3334Z" stroke="#0E0F0C" stroke-width="1.5" stroke-linecap="round" stroke-linejoin="round"/>
<path d="M11.6667 2.33339C11.6667 2.10256 11.6667 1.98714 11.7179 1.89359C11.7602 1.81643 11.8396 1.7446 11.9206 1.71023C12.0188 1.66857 12.1233 1.67905 12.3323 1.70001C13.8559 1.85285 15.2884 2.52698 16.3807 3.61935C17.4731 4.71172 18.1472 6.14414 18.3001 7.66781C18.321 7.87679 18.3315 7.98127 18.2899 8.07947C18.2555 8.16047 18.1837 8.23986 18.1065 8.28214C18.0129 8.33339 17.8975 8.33339 17.6667 8.33339L12.3334 8.33339C12.1 8.33339 11.9833 8.33339 11.8942 8.28798C11.8158 8.24803 11.7521 8.18429 11.7121 8.10589C11.6667 8.01676 11.6667 7.90008 11.6667 7.66673V2.33339Z" stroke="#0E0F0C" stroke-width="1.5" stroke-linecap="round" stroke-linejoin="round"/>
</g>
<defs>
<clipPath id="clip0_535_513">
<rect width="20" height="20" fill="white"/>
</clipPath>
</defs>
</svg>
