<svg width="20" height="20" viewBox="0 0 20 20" fill="none" xmlns="http://www.w3.org/2000/svg">
<path d="M18.3334 8.75004L17.938 5.58724C17.7829 4.34672 17.7054 3.72645 17.4135 3.25904C17.1563 2.84722 16.7847 2.51922 16.3442 2.31508C15.8442 2.08337 15.2191 2.08337 13.9689 2.08337H6.03115C4.78097 2.08337 4.15589 2.08337 3.65587 2.31508C3.21533 2.51922 2.84377 2.84722 2.58657 3.25904C2.29464 3.72645 2.2171 4.34671 2.06204 5.58724L1.66669 8.75004M4.58335 12.0834H15.4167M4.58335 12.0834C2.97252 12.0834 1.66669 10.7775 1.66669 9.16671C1.66669 7.55588 2.97252 6.25004 4.58335 6.25004H15.4167C17.0275 6.25004 18.3334 7.55588 18.3334 9.16671C18.3334 10.7775 17.0275 12.0834 15.4167 12.0834M4.58335 12.0834C2.97252 12.0834 1.66669 13.3892 1.66669 15C1.66669 16.6109 2.97252 17.9167 4.58335 17.9167H15.4167C17.0275 17.9167 18.3334 16.6109 18.3334 15C18.3334 13.3892 17.0275 12.0834 15.4167 12.0834M5.00002 9.16671H5.00835M5.00002 15H5.00835M10 9.16671H15M10 15H15" stroke="#0E0F0C" stroke-width="1.5" stroke-linecap="round" stroke-linejoin="round"/>
</svg>
