<svg width="20" height="20" viewBox="0 0 20 20" fill="none" xmlns="http://www.w3.org/2000/svg">
<path d="M11.6667 7.49996H9.58335C8.893 7.49996 8.33335 8.0596 8.33335 8.74996C8.33335 9.44032 8.893 9.99996 9.58335 9.99996H10.4167C11.107 9.99996 11.6667 10.5596 11.6667 11.25C11.6667 11.9403 11.107 12.5 10.4167 12.5H8.33335M10 6.66663V7.49996M10 12.5V13.3333M15 9.99996H15.0084M5.00002 9.99996H5.00835M1.66669 6.83329L1.66669 13.1666C1.66669 14.1 1.66669 14.5668 1.84834 14.9233C2.00813 15.2369 2.2631 15.4918 2.5767 15.6516C2.93322 15.8333 3.39993 15.8333 4.33335 15.8333L15.6667 15.8333C16.6001 15.8333 17.0668 15.8333 17.4233 15.6516C17.7369 15.4918 17.9919 15.2369 18.1517 14.9233C18.3334 14.5668 18.3334 14.1 18.3334 13.1666V6.83329C18.3334 5.89987 18.3334 5.43316 18.1517 5.07664C17.9919 4.76304 17.7369 4.50807 17.4233 4.34828C17.0668 4.16663 16.6001 4.16663 15.6667 4.16663L4.33335 4.16663C3.39993 4.16663 2.93322 4.16663 2.5767 4.34828C2.2631 4.50807 2.00813 4.76304 1.84834 5.07664C1.66669 5.43316 1.66669 5.89987 1.66669 6.83329ZM15.4167 9.99996C15.4167 10.2301 15.2301 10.4166 15 10.4166C14.7699 10.4166 14.5834 10.2301 14.5834 9.99996C14.5834 9.76984 14.7699 9.58329 15 9.58329C15.2301 9.58329 15.4167 9.76984 15.4167 9.99996ZM5.41669 9.99996C5.41669 10.2301 5.23014 10.4166 5.00002 10.4166C4.7699 10.4166 4.58335 10.2301 4.58335 9.99996C4.58335 9.76984 4.7699 9.58329 5.00002 9.58329C5.23014 9.58329 5.41669 9.76984 5.41669 9.99996Z" [attr.stroke]="fillColor" stroke-width="1.5" stroke-linecap="round" stroke-linejoin="round"/>
</svg>
